# File created by Blade
# Date/Time:  Tue Jan 27 19:32:37 2015
# Frame Rate: 120.000 fps
#------------------------------------------------------
:FULLY-SPECIFIED
:DEGREES
3258
root 3.361258 32.197230 0.759971 -5.822458 -2.921214 -0.855747
Spine -1.557238 -8.622916 -1.189335
Head 31.320189 -34.238862 -10.578050
LeftShoulder -5.102934 -4.108162 29.341213
LeftArm -5.392776 43.475066 -105.217907
LeftForeArm 1.831629 -0.000000 12.817096
LeftHand 9.932989 -0.000000 -6.659995
LeftHandThumb1 -26.253704 0.000000 33.147579
RightShoulder -24.805595 -14.075389 -25.351955
RightArm 66.115745 82.271638 135.420571
RightForeArm 19.957837 -0.000000 125.684568
RightHand 29.326245 -0.000000 -39.280528
RightHandThumb1 -24.326973 -0.000000 -32.862282
LeftUpLeg 15.171680 5.191618 0.632473
LeftLeg 1.372972 -0.000000 -0.000000
LeftFoot -21.999034 17.342169 -23.664603
LeftToeBase 16.579804 -0.000000 -0.000000
RightUpLeg 12.258402 -6.410735 2.451207
RightLeg 1.431596 -0.000000 -0.000000
RightFoot -13.850576 -12.585414 14.677235
RightToeBase 11.752277 -0.000000 -0.000000
3259
root 3.360114 32.196943 0.757524 -5.825197 -2.946748 -0.861134
Spine -1.550662 -8.563853 -1.208799
Head 31.255382 -34.253757 -10.506944
LeftShoulder -5.119131 -4.116270 29.346505
LeftArm -5.346275 43.478032 -105.192706
LeftForeArm 1.816180 -0.000000 12.780385
LeftHand 9.963563 0.000000 -6.660291
LeftHandThumb1 -26.253704 0.000000 33.147579
RightShoulder -24.769157 -14.116340 -25.388524
RightArm 62.171024 82.315658 131.378185
RightForeArm 20.093328 -0.000000 125.782231
RightHand 29.322161 -0.000000 -39.464391
RightHandThumb1 -24.326973 -0.000000 -32.862282
LeftUpLeg 15.169450 5.188718 0.632165
LeftLeg 1.382499 -0.000000 -0.000000
LeftFoot -22.007825 17.345217 -23.642600
LeftToeBase 16.576173 -0.000000 -0.000000
RightUpLeg 12.246863 -6.406637 2.457119
RightLeg 1.449481 -0.000000 -0.000000
RightFoot -13.859811 -12.562305 14.671309
RightToeBase 11.787259 -0.000000 -0.000000
3260
root 3.360001 32.197057 0.754955 -5.828370 -2.963121 -0.863087
Spine -1.543218 -8.499976 -1.229799
Head 31.196419 -34.275825 -10.467736
LeftShoulder -5.128615 -4.146434 29.348900
LeftArm -5.317105 43.484549 -105.173814
LeftForeArm 1.810484 -0.000000 12.759976
LeftHand 9.975379 -0.000000 -6.662930
LeftHandThumb1 -26.253704 0.000000 33.147579
RightShoulder -24.724196 -14.178681 -25.429901
RightArm 57.981827 82.351772 127.100412
RightForeArm 20.357915 -0.000000 125.855483
RightHand 29.302386 -0.000000 -39.047868
RightHandThumb1 -24.326973 -0.000000 -32.862282
LeftUpLeg 15.163331 5.201805 0.633726
LeftLeg 1.397588 -0.000000 -0.000000
LeftFoot -22.016455 17.356283 -23.630763
LeftToeBase 16.586350 -0.000000 -0.000000
RightUpLeg 12.236909 -6.410696 2.456842
RightLeg 1.462758 -0.000000 -0.000000
RightFoot -13.850181 -12.547435 14.655924
RightToeBase 11.790813 -0.000000 -0.000000
3261
root 3.358832 32.197354 0.751469 -5.828350 -2.977360 -0.873490
Spine -1.530817 -8.421478 -1.242158
Head 31.133413 -34.315524 -10.430035
LeftShoulder -5.144348 -4.169500 29.350944
LeftArm -5.255710 43.536419 -105.131049
LeftForeArm 1.784638 -0.000000 12.747838
LeftHand 9.952858 -0.000000 -6.625962
LeftHandThumb1 -26.253704 0.000000 33.147579
RightShoulder -24.696007 -14.252822 -25.465224
RightArm 53.428345 82.319126 122.468776
RightForeArm 20.583519 -0.000000 125.933701
RightHand 29.305327 -0.000000 -38.735064
RightHandThumb1 -24.326973 -0.000000 -32.862282
LeftUpLeg 15.153649 5.189042 0.640956
LeftLeg 1.409371 -0.000000 -0.000000
LeftFoot -22.033779 17.370253 -23.655725
LeftToeBase 16.547844 -0.000000 -0.000000
RightUpLeg 12.225796 -6.406134 2.469138
RightLeg 1.470531 -0.000000 -0.000000
RightFoot -13.834215 -12.538665 14.641462
RightToeBase 11.753393 -0.000000 -0.000000
3262
root 3.358366 32.197833 0.747606 -5.824597 -2.993650 -0.871290
Spine -1.521866 -8.350309 -1.269301
Head 31.068158 -34.335505 -10.391889
LeftShoulder -5.175140 -4.171460 29.358363
LeftArm -5.168640 43.585472 -105.069860
LeftForeArm 1.771571 -0.000000 12.741600
LeftHand 9.996846 -0.000000 -6.625518
LeftHandThumb1 -26.253704 0.000000 33.147579
RightShoulder -24.601960 -14.245405 -25.566843
RightArm 47.729071 82.355154 116.733420
RightForeArm 20.607321 -0.000000 126.005239
RightHand 29.177194 -0.000000 -38.498337
RightHandThumb1 -24.326973 -0.000000 -32.862282
LeftUpLeg 15.145644 5.213138 0.643004
LeftLeg 1.409709 -0.000000 -0.000000
LeftFoot -22.038785 17.413616 -23.654482
LeftToeBase 16.562852 -0.000000 -0.000000
RightUpLeg 12.206807 -6.397808 2.468367
RightLeg 1.482787 -0.000000 -0.000000
RightFoot -13.845730 -12.519529 14.676507
RightToeBase 11.833037 -0.000000 -0.000000
3263
root 3.357770 32.198010 0.745980 -5.834422 -3.010266 -0.873005
Spine -1.498057 -8.244057 -1.290424
Head 31.003486 -34.394472 -10.377809
LeftShoulder -5.184511 -4.226759 29.365254
LeftArm -5.135053 43.626400 -105.042731
LeftForeArm 1.771556 -0.000000 12.763531
LeftHand 9.957221 -0.000000 -6.599828
LeftHandThumb1 -26.253704 0.000000 33.147579
RightShoulder -24.567164 -14.351490 -25.606707
RightArm 42.899518 82.263593 111.866792
RightForeArm 20.651035 -0.000000 126.077965
RightHand 29.254916 0.000000 -37.792934
RightHandThumb1 -24.326973 -0.000000 -32.862282
LeftUpLeg 15.160069 5.228015 0.644702
LeftLeg 1.398485 -0.000000 -0.000000
LeftFoot -22.019696 17.397730 -23.619629
LeftToeBase 16.575365 -0.000000 -0.000000
RightUpLeg 12.216780 -6.395081 2.467025
RightLeg 1.474399 -0.000000 -0.000000
RightFoot -13.816431 -12.496961 14.665195
RightToeBase 11.717369 -0.000000 -0.000000
3264
root 3.356668 32.198419 0.742326 -5.833385 -3.011999 -0.878213
Spine -1.476807 -8.158658 -1.316192
Head 30.916441 -34.427838 -10.336105
LeftShoulder -5.195398 -4.248221 29.372434
LeftArm -5.054638 43.611898 -104.976644
LeftForeArm 1.801408 -0.000000 12.785731
LeftHand 10.025624 0.000000 -6.592547
LeftHandThumb1 -26.253704 0.000000 33.147579
RightShoulder -24.541989 -14.516429 -25.596487
RightArm 38.222610 82.057680 107.134693
RightForeArm 20.469106 -0.000000 126.164600
RightHand 29.099046 -0.000000 -37.133436
RightHandThumb1 -24.326973 -0.000000 -32.862282
LeftUpLeg 15.150811 5.223443 0.650222
LeftLeg 1.403156 -0.000000 -0.000000
LeftFoot -22.024961 17.394193 -23.634464
LeftToeBase 16.554582 -0.000000 -0.000000
RightUpLeg 12.212202 -6.389336 2.473175
RightLeg 1.468272 -0.000000 -0.000000
RightFoot -13.805651 -12.485827 14.662695
RightToeBase 11.786527 -0.000000 -0.000000
3265
root 3.355446 32.199466 0.734868 -5.808493 -3.003786 -0.878508
Spine -1.471905 -8.093112 -1.345584
Head 30.817872 -34.454735 -10.291255
LeftShoulder -5.229605 -4.253740 29.358862
LeftArm -4.963746 43.596630 -104.872504
LeftForeArm 1.851320 -0.000000 12.849799
LeftHand 9.993044 0.000000 -6.559899
LeftHandThumb1 -26.253704 0.000000 33.147579
RightShoulder -24.508975 -14.691199 -25.579424
RightArm 34.327519 81.865803 103.212259
RightForeArm 20.032837 -0.000000 126.217294
RightHand 29.108434 -0.000000 -36.216815
RightHandThumb1 -24.326973 -0.000000 -32.862282
LeftUpLeg 15.103182 5.180469 0.641125
LeftLeg 1.418389 -0.000000 -0.000000
LeftFoot -22.046352 17.450362 -23.671795
LeftToeBase 16.598130 -0.000000 -0.000000
RightUpLeg 12.167641 -6.398404 2.476370
RightLeg 1.484301 -0.000000 -0.000000
RightFoot -13.807588 -12.461716 14.701366
RightToeBase 11.801206 -0.000000 -0.000000
3266
root 3.355093 32.199751 0.729592 -5.799907 -2.985610 -0.875185
Spine -1.443774 -8.014718 -1.385057
Head 30.707229 -34.499062 -10.228331
LeftShoulder -5.267322 -4.276441 29.355490
LeftArm -4.870083 43.588182 -104.771678
LeftForeArm 1.884620 0.000000 12.911621
LeftHand 10.014787 0.000000 -6.589149
LeftHandThumb1 -26.253704 0.000000 33.147579
RightShoulder -24.509204 -14.908796 -25.516339
RightArm 30.905452 81.592143 99.722115
RightForeArm 19.300340 -0.000000 126.294618
RightHand 28.978158 -0.000000 -35.670360
RightHandThumb1 -24.326973 -0.000000 -32.862282
LeftUpLeg 15.075063 5.167388 0.634620
LeftLeg 1.430919 -0.000000 -0.000000
LeftFoot -22.023873 17.429985 -23.623398
LeftToeBase 16.527541 -0.000000 -0.000000
RightUpLeg 12.154148 -6.408387 2.474921
RightLeg 1.478212 -0.000000 -0.000000
RightFoot -13.803697 -12.472979 14.688364
RightToeBase 11.816815 -0.000000 -0.000000
3267
root 3.355142 32.199579 0.724188 -5.793076 -2.960513 -0.876972
Spine -1.407126 -7.924976 -1.416772
Head 30.583613 -34.556733 -10.167420
LeftShoulder -5.290244 -4.272399 29.342827
LeftArm -4.739292 43.539849 -104.635413
LeftForeArm 1.934732 -0.000000 13.008938
LeftHand 10.020303 -0.000000 -6.521949
LeftHandThumb1 -26.253704 0.000000 33.147579
RightShoulder -24.517538 -15.126074 -25.444577
RightArm 27.832331 81.341738 96.560735
RightForeArm 18.445970 -0.000000 126.361237
RightHand 29.014334 -0.000000 -35.549778
RightHandThumb1 -24.326973 -0.000000 -32.862282
LeftUpLeg 15.049445 5.135440 0.630447
LeftLeg 1.442013 -0.000000 -0.000000
LeftFoot -22.039030 17.430940 -23.633289
LeftToeBase 16.526669 -0.000000 -0.000000
RightUpLeg 12.141671 -6.417359 2.478853
RightLeg 1.474736 -0.000000 -0.000000
RightFoot -13.801264 -12.479029 14.686375
RightToeBase 11.801310 -0.000000 -0.000000
3268
root 3.355121 32.199440 0.718810 -5.786647 -2.927695 -0.875601
Spine -1.365001 -7.850476 -1.456063
Head 30.451822 -34.608255 -10.110155
LeftShoulder -5.324176 -4.304771 29.336532
LeftArm -4.668183 43.484462 -104.541020
LeftForeArm 1.930817 -0.000000 13.110913
LeftHand 9.993674 -0.000000 -6.417059
LeftHandThumb1 -26.253704 0.000000 33.147579
RightShoulder -24.517513 -15.116747 -25.462225
RightArm 23.974258 81.110251 92.629306
RightForeArm 17.727870 -0.000000 126.449979
RightHand 29.087027 -0.000000 -35.181396
RightHandThumb1 -24.326973 -0.000000 -32.862282
LeftUpLeg 15.025996 5.136089 0.634435
LeftLeg 1.445247 -0.000000 -0.000000
LeftFoot -22.016986 17.406545 -23.612267
LeftToeBase 16.456179 -0.000000 -0.000000
RightUpLeg 12.128411 -6.429521 2.479743
RightLeg 1.476750 -0.000000 -0.000000
RightFoot -13.810643 -12.491646 14.702177
RightToeBase 11.823953 -0.000000 -0.000000
